<svg width="46" height="46" viewBox="0 0 46 46" xmlns="http://www.w3.org/2000/svg" xmlns:xlink="http://www.w3.org/1999/xlink"><title>logo</title><defs><rect id="path-1" width="40" height="40" rx="100"/><mask id="mask-2" x="-3" y="-3" width="46" height="46"><path fill="#fff" d="M-3-3h46v46H-3z"/><use xlink:href="#path-1"/></mask><path id="path-3" d="M27.292 25.916V0H0v25.916z"/></defs><g id="Page-1" fill="none" fill-rule="evenodd"><g id="LANDING-Copy-2"><g id="logo" transform="translate(3 3)"><use id="Rectangle-2" stroke="#27CC95" mask="url(#mask-2)" stroke-width="6" xlink:href="#path-1"/><g id="Page-1-Copy" transform="translate(6.724 6.836)"><mask id="mask-4" fill="#fff"><use xlink:href="#path-3"/></mask><path d="M3.175 4.86h5.76V2.872h-5.76v1.986zm20.353 12.002c1.017.286 2.1.508 3.24.655l.09.012h.434v-2.873h-.249c-2.494-.333-4.7-1.092-6.343-2.096 4.083-2.007 6.423-5.684 6.423-10.098V1.026h-8.24v2.872h5.26c-.443 2.649-2.12 4.828-4.75 6.106l-1.01.49c-.458-.661-.709-1.361-.709-2.072V.272h-2.863v8.15c0 2.083 1.079 4.012 2.95 5.567H8.847c1.872-1.555 2.951-3.484 2.951-5.567V0H.311v7.732H2.66L0 9.922v3.716l8.934-7.356v2.14c0 2.772-3.805 5.374-8.934 6.17v2.902c1.08-.147 2.112-.36 3.08-.632h20.448z" id="Fill-1" fill="#27CC95" mask="url(#mask-4)"/><path id="Fill-3" fill="#27CC95" mask="url(#mask-4)" d="M19.9 22.173l2.549 3.743h3.468l-2.55-3.743h1.866V19.3H1.375v2.873h1.866L.69 25.916h3.47l2.548-3.743h5.163v3.743h2.864v-3.743z"/></g></g></g></g></svg>