<?xml version="1.0" encoding="UTF-8" standalone="no"?>
<svg width="46px" height="46px" viewBox="0 0 46 46" version="1.1" xmlns="http://www.w3.org/2000/svg" xmlns:xlink="http://www.w3.org/1999/xlink">
    <!-- Generator: Sketch 3.7 (28169) - http://www.bohemiancoding.com/sketch -->
    <title>logo</title>
    <desc>Created with Sketch.</desc>
    <defs>
        <rect id="path-1" x="0" y="0" width="40" height="40" rx="100"></rect>
        <mask id="mask-2" maskContentUnits="userSpaceOnUse" maskUnits="objectBoundingBox" x="-3" y="-3" width="46" height="46">
            <rect x="-3" y="-3" width="46" height="46" fill="white"></rect>
            <use xlink:href="#path-1" fill="black"></use>
        </mask>
        <polygon id="path-3" points="27.2916319 25.9160256 27.2916319 -8.8817842e-14 1.45661261e-13 -8.8817842e-14 1.45661261e-13 25.9160256"></polygon>
    </defs>
    <g id="Page-1" stroke="none" stroke-width="1" fill="none" fill-rule="evenodd">
        <g id="LANDING-Copy-2" transform="translate(-72.000000, -27.000000)">
            <g id="logo" transform="translate(75.000000, 30.000000)">
                <use id="Rectangle-2" stroke="#27CC95" mask="url(#mask-2)" stroke-width="6" xlink:href="#path-1"></use>
                <g id="Page-1-Copy" transform="translate(6.724416, 6.836036)">
                    <mask id="mask-4" fill="white">
                        <use xlink:href="#path-3"></use>
                    </mask>
                    <g id="Clip-2"></g>
                    <path d="M3.17532763,4.85914775 L8.93421572,4.85914775 L8.93421572,2.87301179 L3.17532763,2.87301179 L3.17532763,4.85914775 Z M23.5282933,16.8616024 C24.5448489,17.1479787 25.6278203,17.3702971 26.7674758,17.5172533 L26.8584775,17.5289002 L27.2916319,17.5289002 L27.2916319,14.6560597 L27.0433834,14.6560597 C24.5489465,14.3232672 22.3435638,13.5641645 20.699899,12.5599635 C24.7826826,10.5527604 27.1232873,6.87628498 27.1232873,2.46194536 L27.1232873,1.02561074 L18.8822553,1.02561074 L18.8822553,3.89845125 L24.142256,3.89845125 C23.7000526,6.54657545 22.0236066,8.72642647 19.3930941,10.0039867 L18.3838801,10.4940121 C17.9249447,9.83270899 17.6744766,9.1328684 17.6744766,8.42172347 L17.6744766,0.271646399 L14.8105694,0.271646399 L14.8105694,8.42172347 C14.8105694,10.5054877 15.8899554,12.4339031 17.7613807,13.9885906 L8.84731166,13.9885906 C10.7185661,12.4339031 11.7981229,10.5054877 11.7981229,8.42172347 L11.7981229,0 L0.311420453,0 L0.311420453,7.73198826 L2.6590253,7.73198826 L-3.37507799e-14,9.92160211 L-3.37507799e-14,13.638499 L8.93421572,6.28160888 L8.93421572,8.42172347 C8.93421572,11.1935102 5.12904706,13.7959032 -3.37507799e-14,14.5925157 L-3.37507799e-14,17.4937883 C1.08092264,17.3470033 2.11164921,17.1344477 3.08039902,16.8616024 L23.5282933,16.8616024 Z" id="Fill-1" fill="#27CC95" mask="url(#mask-4)"></path>
                    <polygon id="Fill-3" fill="#27CC95" mask="url(#mask-4)" points="19.8992718 22.1730088 22.4485146 25.9161112 25.916994 25.9161112 23.3677513 22.1730088 25.2333715 22.1730088 25.2333715 19.3001683 1.37521838 19.3001683 1.37521838 22.1730088 3.24083861 22.1730088 0.69159585 25.9161112 4.16007529 25.9161112 6.70931805 22.1730088 11.8723414 22.1730088 11.8723414 25.9161112 14.7362485 25.9161112 14.7362485 22.1730088"></polygon>
                </g>
            </g>
        </g>
    </g>
</svg>